<svg width="272" height="34" viewBox="0 0 272 34" fill="none" xmlns="http://www.w3.org/2000/svg">
<g clip-path="url(#clip0_1652_7509)">
<path d="M4.39051 10.7557C6.81532 10.7557 8.78102 8.79567 8.78102 6.37785C8.78102 3.96003 6.81532 2 4.39051 2C1.9657 2 0 3.96003 0 6.37785C0 8.79567 1.9657 10.7557 4.39051 10.7557Z" fill="#5F61A8"/>
<path d="M12.4052 34H39.1316C39.2751 34.0002 39.4153 33.9573 39.534 33.8768C39.6527 33.7964 39.7444 33.6822 39.797 33.5491C39.8497 33.4159 39.8609 33.2701 39.8292 33.1305C39.7975 32.9909 39.7244 32.8641 39.6194 32.7666L12.8756 8.28883C12.7576 8.17886 12.616 8.09716 12.4615 8.04995C12.3071 8.00274 12.1438 7.99126 11.9843 8.01639C11.8247 8.04151 11.673 8.10257 11.5406 8.19494C11.4083 8.2873 11.2988 8.40853 11.2205 8.54942L5.57553 18.3475C5.46353 18.5377 5.39736 18.7513 5.38225 18.9713C5.36713 19.1914 5.40347 19.412 5.48842 19.6157L11.4295 33.3572C11.5113 33.5478 11.6473 33.7102 11.8207 33.8245C11.9942 33.9387 12.1974 33.9997 12.4052 34Z" fill="#5F61A8"/>
<path d="M48.5918 24.9662V5.35278H52.4074V24.9662H48.5918ZM51.3968 24.9662V21.596H61.4149V24.9662H51.3968Z" fill="#5F61A8"/>
<path d="M70.5789 25.2443C69.2918 25.2619 68.0232 24.9381 66.9027 24.3062C65.8277 23.7046 64.9319 22.8294 64.3068 21.7699C63.6602 20.6889 63.3284 19.4496 63.3485 18.1911C63.3352 16.9413 63.6602 15.7109 64.2893 14.6298C64.9268 13.589 65.8204 12.7279 66.8853 12.1282C68.0185 11.5124 69.2884 11.1897 70.5789 11.1897C71.8694 11.1897 73.1394 11.5124 74.2725 12.1282C75.3325 12.7284 76.2203 13.5897 76.8511 14.6298C77.4796 15.7152 77.8104 16.9465 77.8104 18.1998C77.8104 19.4532 77.4796 20.6844 76.8511 21.7699C76.2369 22.8318 75.3458 23.7083 74.2725 24.3062C73.1457 24.938 71.8715 25.2616 70.5789 25.2443ZM70.5789 21.7699C71.1893 21.7741 71.7901 21.6183 72.3212 21.3182C72.8456 21.013 73.2741 20.5677 73.5582 20.0326C73.8434 19.4486 73.9867 18.8059 73.9763 18.1564C73.9934 17.5042 73.8435 16.8585 73.5408 16.2802C73.2511 15.7536 72.8236 15.3153 72.3038 15.012C71.7744 14.7058 71.1735 14.544 70.5615 14.5429C69.9495 14.544 69.3486 14.7058 68.8192 15.012C68.2994 15.3153 67.8719 15.7536 67.5822 16.2802C67.2795 16.8585 67.1296 17.5042 67.1467 18.1564C67.1334 18.8082 67.2831 19.453 67.5822 20.0326C67.8664 20.5677 68.2948 21.013 68.8192 21.3182C69.3435 21.6426 69.9447 21.8225 70.5615 21.8393L70.5789 21.7699Z" fill="#5F61A8"/>
<path d="M87.1139 25.2443C85.821 25.2641 84.5462 24.9403 83.4203 24.3061C82.3452 23.7045 81.4494 22.8293 80.8243 21.7698C80.1778 20.6888 79.8459 19.4496 79.8661 18.1911C79.8528 16.9412 80.1778 15.7108 80.8069 14.6297C81.4461 13.5843 82.3467 12.7223 83.4203 12.1281C84.5455 11.4924 85.8208 11.1685 87.1139 11.19C88.4123 11.1704 89.6927 11.4941 90.8249 12.1281C91.8849 12.7283 92.7727 13.5896 93.4035 14.6297C94.0504 15.7042 94.3824 16.938 94.3617 18.1911C94.379 19.4273 94.0652 20.6457 93.4527 21.7206C92.8401 22.7956 91.9511 23.6881 90.8772 24.3061C89.7312 24.9532 88.4304 25.2774 87.1139 25.2443ZM87.1139 21.7698C87.7243 21.774 88.3251 21.6182 88.8562 21.3181C89.3842 21.0174 89.8138 20.571 90.0932 20.0325C90.3976 19.4766 90.5704 18.8586 90.5985 18.2258C90.6101 17.5721 90.4542 16.9263 90.1455 16.3496C89.8558 15.823 89.4283 15.3847 88.9085 15.0814C88.3791 14.7752 87.7782 14.6134 87.1662 14.6123C86.5542 14.6134 85.9533 14.7752 85.4239 15.0814C84.9088 15.3906 84.4826 15.8275 84.1869 16.3496C83.8417 16.9165 83.6496 17.5629 83.6294 18.2258C83.6161 18.8776 83.7658 19.5224 84.065 20.102C84.3557 20.6462 84.7942 21.0978 85.3304 21.405C85.8665 21.7122 86.4786 21.8627 87.0965 21.8393L87.1139 21.7698Z" fill="#5F61A8"/>
<path d="M97.375 24.9663V4.79688H101.051V24.9663H97.375ZM106.086 24.9663L100.86 18.0173L106.086 11.5026H110.32L104.222 18.8685L104.361 17.1313L110.599 25.0184L106.086 24.9663Z" fill="#5F61A8"/>
<path d="M118.474 25.2443C117.367 25.2998 116.263 25.0726 115.268 24.5841C114.369 24.1011 113.622 23.3796 113.108 22.4994C112.569 21.5464 112.298 20.4661 112.324 19.3724V11.5027H116.018V19.216C116 19.7115 116.095 20.2045 116.296 20.658C116.463 21.0457 116.758 21.3646 117.133 21.5613C117.533 21.7781 117.984 21.886 118.439 21.874C118.762 21.8857 119.084 21.83 119.384 21.7103C119.684 21.5906 119.956 21.4097 120.182 21.1791C120.643 20.6325 120.874 19.9289 120.826 19.216V11.5027H124.485V19.3724C124.518 20.4647 124.253 21.5453 123.718 22.4994C123.23 23.3753 122.506 24.0974 121.628 24.5841C120.646 25.0557 119.563 25.2823 118.474 25.2443Z" fill="#5F61A8"/>
<path d="M127.568 30.595V11.4854H131.227V14.9599L130.67 18.2954L131.262 21.5614V30.595H127.568ZM135.06 25.2443C134.137 25.2401 133.228 25.0137 132.412 24.5842C131.66 24.2092 131.017 23.6466 130.548 22.9512C130.069 22.2472 129.803 21.4213 129.781 20.5711V15.898C129.803 15.0479 130.069 14.2219 130.548 13.5179C131.017 12.7892 131.664 12.1913 132.429 11.7807C133.235 11.362 134.134 11.1529 135.043 11.1727C136.229 11.1487 137.397 11.4685 138.405 12.0934C139.394 12.7033 140.201 13.5674 140.74 14.595C141.323 15.703 141.617 16.9399 141.594 18.1911C141.615 19.4366 141.321 20.6673 140.74 21.7698C140.201 22.7975 139.394 23.6616 138.405 24.2715C137.408 24.9114 136.246 25.2494 135.06 25.2443ZM134.415 21.8741C135.027 21.873 135.628 21.7112 136.158 21.405C136.676 21.1057 137.099 20.666 137.377 20.1368C137.67 19.5425 137.819 18.888 137.813 18.2259C137.819 17.5693 137.67 16.9205 137.377 16.3323C137.094 15.8021 136.673 15.3579 136.158 15.0467C135.627 14.7466 135.026 14.5908 134.415 14.595C133.805 14.5908 133.204 14.7466 132.673 15.0467C132.158 15.3579 131.737 15.8021 131.454 16.3323C131.161 16.9205 131.012 17.5693 131.018 18.2259C131.012 18.888 131.161 19.5425 131.454 20.1368C131.731 20.661 132.147 21.0995 132.656 21.405C133.188 21.719 133.797 21.8812 134.415 21.8741Z" fill="#5F61A8"/>
<path d="M151.038 25.2443C149.75 25.2644 148.481 24.9405 147.362 24.3062C146.28 23.7071 145.378 22.8316 144.748 21.7698C144.102 20.6889 143.77 19.4496 143.79 18.1911C143.769 16.9381 144.101 15.7043 144.748 14.6298C145.378 13.583 146.274 12.7202 147.344 12.1282C148.459 11.4985 149.722 11.1748 151.003 11.19C152.301 11.1705 153.582 11.4942 154.714 12.1282C155.779 12.7279 156.672 13.589 157.31 14.6298C157.939 15.7109 158.264 16.9412 158.251 18.1911C158.267 19.4469 157.942 20.6836 157.31 21.7698C156.689 22.8325 155.792 23.7087 154.714 24.3062C153.594 24.9381 152.325 25.2619 151.038 25.2443ZM151.038 21.7698C151.648 21.7741 152.249 21.6183 152.78 21.3182C153.308 21.0175 153.738 20.5711 154.017 20.0326C154.316 19.453 154.466 18.8082 154.453 18.1564C154.464 17.5027 154.308 16.8569 154 16.2802C153.716 15.7548 153.295 15.3164 152.78 15.012C152.251 14.7058 151.65 14.544 151.038 14.5429C150.426 14.544 149.825 14.7058 149.296 15.012C148.781 15.3164 148.359 15.7548 148.076 16.2802C147.767 16.8569 147.611 17.5027 147.623 18.1564C147.616 18.8095 147.771 19.4543 148.076 20.0326C148.354 20.5665 148.776 21.0119 149.296 21.3182C149.81 21.6368 150.398 21.8164 151.003 21.8393L151.038 21.7698Z" fill="#5F61A8"/>
<path d="M161.246 24.9663V11.5027H164.905V24.9663H161.246ZM170.341 24.9663V17.2356C170.356 16.8765 170.295 16.5183 170.164 16.1837C170.032 15.8491 169.832 15.5455 169.577 15.2922C169.321 15.0389 169.015 14.8414 168.679 14.7124C168.342 14.5834 167.983 14.5257 167.623 14.5429C167.137 14.5299 166.657 14.6437 166.229 14.8729C165.82 15.0929 165.481 15.4243 165.253 15.8284C165.016 16.2591 164.896 16.7442 164.905 17.2356L163.476 16.5233C163.45 15.5507 163.691 14.5895 164.173 13.7437C164.617 12.9572 165.275 12.3125 166.072 11.8849C166.916 11.4293 167.865 11.2017 168.825 11.2247C169.76 11.208 170.68 11.4614 171.473 11.9544C172.246 12.4266 172.882 13.0911 173.32 13.8827C173.771 14.6582 174.006 15.54 173.999 16.4365V24.9663H170.341Z" fill="#5F61A8"/>
</g>
<path d="M185.48 25.5V23.532H190.52C191.48 23.532 192.232 23.252 192.776 22.692C193.32 22.116 193.592 21.428 193.592 20.628C193.592 20.084 193.472 19.596 193.232 19.164C192.992 18.716 192.64 18.364 192.176 18.108C191.728 17.852 191.2 17.724 190.592 17.724H185.48V15.756H190.256C191.056 15.756 191.688 15.548 192.152 15.132C192.632 14.7 192.872 14.084 192.872 13.284C192.872 12.484 192.624 11.876 192.128 11.46C191.632 11.028 190.976 10.812 190.16 10.812H185.48V8.844H190.208C191.296 8.844 192.2 9.044 192.92 9.444C193.656 9.828 194.208 10.34 194.576 10.98C194.96 11.62 195.152 12.324 195.152 13.092C195.152 13.988 194.904 14.772 194.408 15.444C193.928 16.116 193.216 16.644 192.272 17.028L192.464 16.308C193.536 16.692 194.368 17.276 194.96 18.06C195.568 18.828 195.872 19.74 195.872 20.796C195.872 21.676 195.656 22.468 195.224 23.172C194.792 23.876 194.168 24.444 193.352 24.876C192.552 25.292 191.568 25.5 190.4 25.5H185.48ZM183.968 25.5V8.844H186.224V25.5H183.968ZM203.121 25.74C202.193 25.74 201.353 25.532 200.601 25.116C199.865 24.684 199.289 24.092 198.873 23.34C198.457 22.588 198.249 21.716 198.249 20.724V14.1H200.409V20.628C200.409 21.252 200.513 21.796 200.721 22.26C200.945 22.708 201.265 23.052 201.681 23.292C202.097 23.532 202.585 23.652 203.145 23.652C203.993 23.652 204.657 23.388 205.137 22.86C205.617 22.316 205.857 21.572 205.857 20.628V14.1H208.017V20.724C208.017 21.716 207.809 22.588 207.393 23.34C206.977 24.092 206.401 24.684 205.665 25.116C204.945 25.532 204.097 25.74 203.121 25.74ZM214.536 25.74C213.896 25.74 213.288 25.66 212.712 25.5C212.152 25.324 211.632 25.084 211.152 24.78C210.672 24.46 210.256 24.084 209.904 23.652L211.296 22.26C211.712 22.772 212.192 23.156 212.736 23.412C213.28 23.652 213.888 23.772 214.56 23.772C215.232 23.772 215.752 23.66 216.12 23.436C216.488 23.196 216.672 22.868 216.672 22.452C216.672 22.036 216.52 21.716 216.216 21.492C215.928 21.252 215.552 21.06 215.088 20.916C214.624 20.756 214.128 20.604 213.6 20.46C213.088 20.3 212.6 20.1 212.136 19.86C211.672 19.62 211.288 19.292 210.984 18.876C210.696 18.46 210.552 17.908 210.552 17.22C210.552 16.532 210.72 15.94 211.056 15.444C211.392 14.932 211.856 14.54 212.448 14.268C213.056 13.996 213.784 13.86 214.632 13.86C215.528 13.86 216.32 14.02 217.008 14.34C217.712 14.644 218.288 15.108 218.736 15.732L217.344 17.124C217.024 16.708 216.624 16.388 216.144 16.164C215.68 15.94 215.152 15.828 214.56 15.828C213.936 15.828 213.456 15.94 213.12 16.164C212.8 16.372 212.64 16.668 212.64 17.052C212.64 17.436 212.784 17.732 213.072 17.94C213.36 18.148 213.736 18.324 214.2 18.468C214.68 18.612 215.176 18.764 215.688 18.924C216.2 19.068 216.688 19.268 217.152 19.524C217.616 19.78 217.992 20.124 218.28 20.556C218.584 20.988 218.736 21.556 218.736 22.26C218.736 23.332 218.352 24.18 217.584 24.804C216.832 25.428 215.816 25.74 214.536 25.74ZM221.178 25.5V14.1H223.338V25.5H221.178ZM222.258 11.82C221.858 11.82 221.53 11.692 221.274 11.436C221.018 11.164 220.89 10.828 220.89 10.428C220.89 10.044 221.018 9.724 221.274 9.468C221.53 9.196 221.858 9.06 222.258 9.06C222.658 9.06 222.986 9.196 223.242 9.468C223.498 9.724 223.626 10.044 223.626 10.428C223.626 10.828 223.498 11.164 223.242 11.436C222.986 11.692 222.658 11.82 222.258 11.82ZM234.586 25.5V18.852C234.586 17.988 234.314 17.276 233.77 16.716C233.226 16.156 232.522 15.876 231.658 15.876C231.082 15.876 230.57 16.004 230.122 16.26C229.674 16.516 229.322 16.868 229.066 17.316C228.81 17.764 228.682 18.276 228.682 18.852L227.794 18.348C227.794 17.484 227.986 16.716 228.37 16.044C228.754 15.372 229.29 14.844 229.978 14.46C230.666 14.06 231.442 13.86 232.306 13.86C233.17 13.86 233.93 14.076 234.586 14.508C235.258 14.94 235.786 15.508 236.17 16.212C236.554 16.9 236.746 17.636 236.746 18.42V25.5H234.586ZM226.521 25.5V14.1H228.682V25.5H226.521ZM244.95 25.74C243.814 25.74 242.79 25.484 241.878 24.972C240.966 24.444 240.246 23.732 239.718 22.836C239.19 21.94 238.926 20.924 238.926 19.788C238.926 18.668 239.182 17.66 239.694 16.764C240.222 15.868 240.926 15.164 241.806 14.652C242.702 14.124 243.702 13.86 244.806 13.86C245.862 13.86 246.79 14.1 247.59 14.58C248.406 15.06 249.038 15.724 249.486 16.572C249.95 17.42 250.182 18.38 250.182 19.452C250.182 19.612 250.174 19.788 250.158 19.98C250.142 20.156 250.11 20.364 250.062 20.604H240.438V18.804H248.91L248.118 19.5C248.118 18.732 247.982 18.084 247.71 17.556C247.438 17.012 247.054 16.596 246.558 16.308C246.062 16.004 245.462 15.852 244.758 15.852C244.022 15.852 243.374 16.012 242.814 16.332C242.254 16.652 241.822 17.1 241.518 17.676C241.214 18.252 241.062 18.932 241.062 19.716C241.062 20.516 241.222 21.22 241.542 21.828C241.862 22.42 242.318 22.884 242.91 23.22C243.502 23.54 244.182 23.7 244.95 23.7C245.59 23.7 246.174 23.588 246.702 23.364C247.246 23.14 247.71 22.804 248.094 22.356L249.486 23.772C248.942 24.412 248.27 24.9 247.47 25.236C246.686 25.572 245.846 25.74 244.95 25.74ZM256.161 25.74C255.521 25.74 254.913 25.66 254.337 25.5C253.777 25.324 253.257 25.084 252.777 24.78C252.297 24.46 251.881 24.084 251.529 23.652L252.921 22.26C253.337 22.772 253.817 23.156 254.361 23.412C254.905 23.652 255.513 23.772 256.185 23.772C256.857 23.772 257.377 23.66 257.745 23.436C258.113 23.196 258.297 22.868 258.297 22.452C258.297 22.036 258.145 21.716 257.841 21.492C257.553 21.252 257.177 21.06 256.713 20.916C256.249 20.756 255.753 20.604 255.225 20.46C254.713 20.3 254.225 20.1 253.761 19.86C253.297 19.62 252.913 19.292 252.609 18.876C252.321 18.46 252.177 17.908 252.177 17.22C252.177 16.532 252.345 15.94 252.681 15.444C253.017 14.932 253.481 14.54 254.073 14.268C254.681 13.996 255.409 13.86 256.257 13.86C257.153 13.86 257.945 14.02 258.633 14.34C259.337 14.644 259.913 15.108 260.361 15.732L258.969 17.124C258.649 16.708 258.249 16.388 257.769 16.164C257.305 15.94 256.777 15.828 256.185 15.828C255.561 15.828 255.081 15.94 254.745 16.164C254.425 16.372 254.265 16.668 254.265 17.052C254.265 17.436 254.409 17.732 254.697 17.94C254.985 18.148 255.361 18.324 255.825 18.468C256.305 18.612 256.801 18.764 257.313 18.924C257.825 19.068 258.313 19.268 258.777 19.524C259.241 19.78 259.617 20.124 259.905 20.556C260.209 20.988 260.361 21.556 260.361 22.26C260.361 23.332 259.977 24.18 259.209 24.804C258.457 25.428 257.441 25.74 256.161 25.74ZM266.403 25.74C265.763 25.74 265.155 25.66 264.579 25.5C264.019 25.324 263.499 25.084 263.019 24.78C262.539 24.46 262.123 24.084 261.771 23.652L263.163 22.26C263.579 22.772 264.059 23.156 264.603 23.412C265.147 23.652 265.755 23.772 266.427 23.772C267.099 23.772 267.619 23.66 267.987 23.436C268.355 23.196 268.539 22.868 268.539 22.452C268.539 22.036 268.387 21.716 268.083 21.492C267.795 21.252 267.419 21.06 266.955 20.916C266.491 20.756 265.995 20.604 265.467 20.46C264.955 20.3 264.467 20.1 264.003 19.86C263.539 19.62 263.155 19.292 262.851 18.876C262.563 18.46 262.419 17.908 262.419 17.22C262.419 16.532 262.587 15.94 262.923 15.444C263.259 14.932 263.723 14.54 264.315 14.268C264.923 13.996 265.651 13.86 266.499 13.86C267.395 13.86 268.187 14.02 268.875 14.34C269.579 14.644 270.155 15.108 270.603 15.732L269.211 17.124C268.891 16.708 268.491 16.388 268.011 16.164C267.547 15.94 267.019 15.828 266.427 15.828C265.803 15.828 265.323 15.94 264.987 16.164C264.667 16.372 264.507 16.668 264.507 17.052C264.507 17.436 264.651 17.732 264.939 17.94C265.227 18.148 265.603 18.324 266.067 18.468C266.547 18.612 267.043 18.764 267.555 18.924C268.067 19.068 268.555 19.268 269.019 19.524C269.483 19.78 269.859 20.124 270.147 20.556C270.451 20.988 270.603 21.556 270.603 22.26C270.603 23.332 270.219 24.18 269.451 24.804C268.699 25.428 267.683 25.74 266.403 25.74Z" fill="#5F61A8"/>
<defs>
<clipPath id="clip0_1652_7509">
<rect width="174" height="32" fill="white" transform="translate(0 2)"/>
</clipPath>
</defs>
</svg>
