<svg width="176" height="32" viewBox="0 0 176 32" fill="none" xmlns="http://www.w3.org/2000/svg">
<path d="M16.6113 4.58022L20.142 11.3592L20.5326 12.1093L21.3766 12.1633L28.3906 12.6122L23.2114 17.5843L22.5769 18.1933L22.7986 19.0444L24.7331 26.4729L17.2949 22.6645L16.6113 22.3145L15.9277 22.6645L8.48946 26.4729L10.424 19.0444L10.6456 18.1933L10.0112 17.5843L4.83193 12.6122L11.846 12.1633L12.6899 12.1093L13.0805 11.3592L16.6113 4.58022Z" fill="#5F61A8" stroke="#5F61A8" stroke-width="3"/>
<path d="M52.6113 4.58022L56.142 11.3592L56.5326 12.1093L57.3766 12.1633L64.3906 12.6122L59.2114 17.5843L58.5769 18.1933L58.7986 19.0444L60.7331 26.4729L53.2949 22.6645L52.6113 22.3145L51.9277 22.6645L44.4895 26.4729L46.424 19.0444L46.6456 18.1933L46.0112 17.5843L40.8319 12.6122L47.846 12.1633L48.6899 12.1093L49.0805 11.3592L52.6113 4.58022Z" fill="#5F61A8" stroke="#5F61A8" stroke-width="3"/>
<path d="M88.6113 4.58022L92.142 11.3592L92.5326 12.1093L93.3766 12.1633L100.391 12.6122L95.2114 17.5843L94.5769 18.1933L94.7986 19.0444L96.7331 26.4729L89.2949 22.6645L88.6113 22.3145L87.9277 22.6645L80.4895 26.4729L82.424 19.0444L82.6456 18.1933L82.0112 17.5843L76.8319 12.6122L83.846 12.1633L84.6899 12.1093L85.0805 11.3592L88.6113 4.58022Z" fill="#5F61A8" stroke="#5F61A8" stroke-width="3"/>
<path d="M124.611 4.58022L128.142 11.3592L128.533 12.1093L129.377 12.1633L136.391 12.6122L131.211 17.5843L130.577 18.1933L130.799 19.0444L132.733 26.4729L125.295 22.6645L124.611 22.3145L123.928 22.6645L116.489 26.4729L118.424 19.0444L118.646 18.1933L118.011 17.5843L112.832 12.6122L119.846 12.1633L120.69 12.1093L121.081 11.3592L124.611 4.58022Z" fill="#5F61A8" stroke="#5F61A8" stroke-width="3"/>
<path d="M175.889 11.333L165.472 10.6663L160.611 1.33301L155.75 10.6663L145.333 11.333L152.972 18.6663L150.195 29.333L160.611 23.9997L171.028 29.333L168.25 18.6663L175.889 11.333ZM164.083 17.5997L165.333 22.3997L160.611 19.9997L155.889 22.3997L157.139 17.5997L153.806 14.3997L158.111 14.133L160.611 9.33301L163.111 14.133L167.417 14.3997L164.083 17.5997Z" fill="#5F61A8"/>
</svg>
